# xmcd CD database file
#
# Track frame offsets:
#	150
#	27235
#	50862
#	73185
#	98717
#	122885
#	143600
#	164035
#	184067
#	204840
#	229605
#	252575
#	271865
#
# Disc length: 3921 seconds
#
# Revision: 3
# Processed by: cddbd v1.5.1PL0 Copyright (c) Steve Scherf et al.
# Submitted via: CDex 1.51
#
DISCID=be0f4f0d
DTITLE=Keith Sweat - Just A Touch
DYEAR=1998
DGENRE=R&B
TTITLE0=I Want Her
TTITLE1=Something Just Ain't Right
TTITLE2=Make It Last Forever
TTITLE3=I'll Give All My Love For You
TTITLE4=Make You Sweat
TTITLE5=How Do You Like It
TTITLE6=Twisted
TTITLE7=Nobody (with Athena Cage)
TTITLE8=Put Your Lovin' Throgh The Test
TTITLE9=Why Me Baby (with L.L. Cool J.)
TTITLE10=Just A Touch
TTITLE11=Just A Touch (Stevie J. Bad Boy Remix)
TTITLE12=Nobody (The Chanz Remix)
EXTD=YEAR: 1998
EXTT0=
EXTT1=
EXTT2=
EXTT3=
EXTT4=
EXTT5=
EXTT6=
EXTT7=
EXTT8=
EXTT9=
EXTT10=
EXTT11=
EXTT12=
PLAYORDER=
